<svg xmlns="http://www.w3.org/2000/svg" viewBox="0 0 64 64" role="img" aria-label="L4-L5 recovery guide">
  <rect width="64" height="64" rx="18" fill="#006a6a"/>
  <path d="M32 13c-5.8 0-10.5 4.7-10.5 10.5 0 4.5 2.9 8.4 6.9 9.9v4.2H18.8c-2.2 0-4 1.8-4 4v5.1c0 2.2 1.8 4 4 4h26.9c2.2 0 4-1.8 4-4v-5.1c0-2.2-1.8-4-4-4h-9.6v-4.2c4-1.5 6.9-5.4 6.9-9.9C43 17.7 37.9 13 32 13Zm0 7.1a3.5 3.5 0 1 1 0 7 3.5 3.5 0 0 1 0-7Zm-12.3 23h24.6v3.1H19.7v-3.1Z" fill="#ffffff"/>
  <path d="M24.3 34.5h15.4" stroke="#cce8e7" stroke-width="4" stroke-linecap="round"/>
</svg>
